<svg width="40" height="40" viewBox="0 0 40 40" fill="none" xmlns="http://www.w3.org/2000/svg">
<g clip-path="url(#clip0_263_302)">
<path d="M16.346 4.88083C22.1827 16.1531 27.9224 27.5296 34.2927 38.4718C36.346 42.015 41.6007 38.7497 39.5311 35.1891C33.1771 24.2469 27.4212 12.8704 21.5845 1.59816C19.6928 -2.06662 14.4543 1.21605 16.346 4.88083Z" fill="#414141"/>
<path d="M0.000176936 39.6005C2.10204 38.8537 4.23623 38.5063 6.45127 38.3847C8.35911 38.2805 10.2993 38.2458 12.1586 37.7768C14.5677 37.1689 16.7342 35.762 17.8336 33.2957C21.423 25.1845 14.6162 14.277 14.115 12.1407C14.6485 14.4681 14.697 16.9344 14.6324 19.3139C14.5838 21.4503 14.6324 24.1424 13.6299 26.053C13.3389 26.5914 12.9832 27.0951 12.5628 27.5467C11.6412 28.5541 10.4933 29.2835 9.3292 29.9436C7.1465 31.1941 5.02847 32.4446 3.1368 34.1815C1.6655 35.5363 0.0810177 37.36 -0.0159912 39.5658L0.000176936 39.6005Z" fill="#414141"/>
</g>
<defs>
<clipPath id="clip0_263_302">
<rect width="40" height="40" fill="white"/>
</clipPath>
</defs>
</svg>
